<?xml version="1.0" encoding="UTF-8" standalone="no"?>
<!-- Created with Inkscape (http://www.inkscape.org/) -->

<svg
   width="297mm"
   height="210mm"
   viewBox="0 0 297 210"
   version="1.1"
   id="svg5"
   inkscape:version="1.2 (dc2aedaf03, 2022-05-15)"
   sodipodi:docname="bg.svg"
   xmlns:inkscape="http://www.inkscape.org/namespaces/inkscape"
   xmlns:sodipodi="http://sodipodi.sourceforge.net/DTD/sodipodi-0.dtd"
   xmlns="http://www.w3.org/2000/svg"
   xmlns:svg="http://www.w3.org/2000/svg">
  <sodipodi:namedview
     id="namedview7"
     pagecolor="#ffffff"
     bordercolor="#000000"
     borderopacity="0.25"
     inkscape:showpageshadow="2"
     inkscape:pageopacity="0.0"
     inkscape:pagecheckerboard="0"
     inkscape:deskcolor="#d1d1d1"
     inkscape:document-units="mm"
     showgrid="false"
     inkscape:zoom="0.50646226"
     inkscape:cx="250.75906"
     inkscape:cy="312.95521"
     inkscape:window-width="1920"
     inkscape:window-height="991"
     inkscape:window-x="-9"
     inkscape:window-y="-9"
     inkscape:window-maximized="1"
     inkscape:current-layer="layer1" />
  <defs
     id="defs2">
    <filter
       inkscape:collect="always"
       style="color-interpolation-filters:sRGB"
       id="filter858"
       x="-0.48378427"
       y="-0.5660896"
       width="1.9675685"
       height="2.1321792">
      <feGaussianBlur
         inkscape:collect="always"
         stdDeviation="26.798499"
         id="feGaussianBlur860" />
    </filter>
    <filter
       inkscape:collect="always"
       style="color-interpolation-filters:sRGB"
       id="filter916"
       x="-0.52149838"
       y="-0.80060291"
       width="2.0429968"
       height="2.6012058">
      <feGaussianBlur
         inkscape:collect="always"
         stdDeviation="35.231265"
         id="feGaussianBlur918" />
    </filter>
    <filter
       inkscape:collect="always"
       style="color-interpolation-filters:sRGB"
       id="filter2096"
       x="-0.52094772"
       y="-0.79975755"
       width="2.0418954"
       height="2.5995151">
      <feGaussianBlur
         inkscape:collect="always"
         stdDeviation="35.194065"
         id="feGaussianBlur2094" />
    </filter>
  </defs>
  <g
     inkscape:label="Layer 1"
     inkscape:groupmode="layer"
     id="layer1">
    <path
       style="opacity:1;mix-blend-mode:normal;fill:#d40055;stroke-width:20;paint-order:fill markers stroke;filter:url(#filter2096);stop-color:#000000"
       d="m 22.328064,132.00325 c 0,0 -82.00746,26.96642 -23.6417895,62.79851 58.3656685,35.83209 58.3656685,35.83209 58.3656685,35.83209 l 72.402987,-33.24627 10.34328,-36.57089 c 0,0 1.47761,-9.60448 -10.34328,-12.1903 -11.8209,-2.58582 -39.526121,-22.53358 -39.526121,-22.53358 0,0 -45.805968,-4.80224 -67.600745,5.91044 z"
       id="path195" />
    <path
       style="opacity:1;fill:#cc00ff;stroke-width:20;paint-order:fill markers stroke;stop-color:#000000;filter:url(#filter858)"
       d="m 196.15298,-8.1268656 c -12.5597,68.3395516 -23.27239,23.6417906 -12.5597,68.3395516 10.71269,44.697764 83.85448,36.570896 83.85448,36.570896 l 44.69776,-56.149255 -46.17538,-56.888058 z"
       id="path197" />
    <path
       style="opacity:1;mix-blend-mode:normal;fill:#0066ff;stroke-width:17.194;paint-order:fill markers stroke;filter:url(#filter916);stop-color:#000000"
       d="m 10.712686,-47.098885 c 0,0 -82.00746,26.96642 -23.64179,62.79851 58.365669,35.83209 58.365669,35.83209 58.365669,35.83209 l 72.402985,-33.24627 10.34328,-36.57089 c 0,0 1.47761,-9.60448 -10.34328,-12.1903 -11.8209,-2.58582 -39.526119,-22.53358 -39.526119,-22.53358 0,0 -45.805968,-4.80224 -67.600745,5.91044 z"
       id="path1729"
       transform="matrix(0,1,-1.3530254,0,52.577236,-58.421881)" />
    <path
       style="opacity:1;fill:#ff00cc;stroke-width:20;paint-order:fill markers stroke;filter:url(#filter858);stop-color:#000000"
       d="m 196.15298,159.04584 c -12.5597,68.33955 -23.27239,23.64179 -12.5597,68.33955 10.71269,44.69777 83.85448,36.5709 83.85448,36.5709 l 44.69776,-56.14926 -46.17538,-56.88805 z"
       id="path2098" />
  </g>
</svg>
